{"title":"The Twilight Saga Eclipse .2010.TS-MAGNET","uid":5665982,"size":1296208053,"categoryP":"video","categoryS":"movies","magnet":"?xt=urn:btih:71efbc4887f9a9d7a918805909c819fcb05be362&amp;dn=The+Twilight+Saga+Eclipse+.2010.TS-MAGNET&amp;tr=udp%3A%2F%2Ftracker.openbittorrent.com%3A80&amp;tr=udp%3A%2F%2Fopen.demonii.com%3A1337&amp;tr=udp%3A%2F%2Ftracker.coppersurfer.tk%3A6969&amp;tr=udp%3A%2F%2Fexodus.desync.com%3A6969","seeders":1,"leechers":0,"uploader":"hiest","files":-1,"time":1278145206,"description":"Bella once again finds herself surrounded by danger as Seattle is ravaged by a string of mysterious killings and a malicious vampire continues her quest for revenge. In the midst of it all, she is forced to choose between her love for Edward and her friendship with Jacob -- knowing that her decision has the potential to ignite the struggle between vampire and werewolf. With her graduation quickly approaching, Bella is confronted with the most important decision of her life.\n\n\n  &lt;a href=&quot;\nhttp://www.imdb.com/title/tt1325004/&quot; rel=&quot;nofollow&quot; target=&quot;_NEW&quot;&gt;\nhttp://www.imdb.com/title/tt1325004/&lt;/a&gt;\nMOVIEmeter: Up 200% in popularity this week.\nGenre:Fantasy | Romance | Thriller \n\n\n\n \nVideo\nFormat : xvid\nCodec ID : xvid\nDuration : 1h 53mn\nBit rate : 1 432 Kbps\nWidth : 700 pixels\nHeight : 304 pixels\nDisplay aspect ratio : 2.35:1\nFrame rate : 25.000 fps\nBits/(Pixel*Frame) : 0.269\nStream size : 1.13 GiB (95%)\n\nAudio\nID : 1\nFormat : MPEG Audio\nFormat version : Version 1\nFormat profile : Layer 2\nCodec ID : 50\nDuration : 1h 53mn\nBit rate mode : Constant\nBit rate : 64.0 Kbps\nChannel(s) : 2 channels\nSampling rate : 44.1 KHz\nStream size : 51.8 MiB (4%)\nAlignment : Aligned on interleaves\nInterleave, duration : 26 ms (0.65 video frame)\nInterleave, preload duration : 522 ms\n\n\nScreenshots\n &lt;a href=&quot;\nhttp://postimg.com/image/18000/17363.jpg&quot; rel=&quot;nofollow&quot; target=&quot;_NEW&quot;&gt;\nhttp://postimg.com/image/18000/17363.jpg&lt;/a&gt;\n &lt;a href=&quot;\nhttp://postimg.com/image/18000/17364.jpg&quot; rel=&quot;nofollow&quot; target=&quot;_NEW&quot;&gt;\nhttp://postimg.com/image/18000/17364.jpg&lt;/a&gt;","torrent":{"xt":"urn:btih:71efbc4887f9a9d7a918805909c819fcb05be362","amp;dn":"The+Twilight+Saga+Eclipse+.2010.TS-MAGNET","amp;tr":["udp%3A%2F%2Ftracker.openbittorrent.com%3A80","udp%3A%2F%2Fopen.demonii.com%3A1337","udp%3A%2F%2Ftracker.coppersurfer.tk%3A6969","udp%3A%2F%2Fexodus.desync.com%3A6969"],"infoHash":"71efbc4887f9a9d7a918805909c819fcb05be362","infoHashBuffer":{"type":"Buffer","data":[113,239,188,72,135,249,169,215,169,24,128,89,9,200,25,252,176,91,227,98]},"announce":[],"urlList":[]}}